<svg width="32" height="32" viewBox="0 0 32 32" fill="none" xmlns="http://www.w3.org/2000/svg">
<path fill-rule="evenodd" clip-rule="evenodd" d="M2 8C2 8 2 7.17157 2.58579 6.58579C2.58579 6.58579 3.17157 6 4 6H28C28 6 28.8284 6 29.4142 6.58579C29.4142 6.58579 30 7.17157 30 8V11C30 11 30 11.8284 29.4142 12.4142C29.4142 12.4142 28.8284 13 28 13H4C4 13 3.17157 13 2.58579 12.4142C2.58579 12.4142 2 11.8284 2 11V8ZM4 8V11H28V8H4Z" fill="#9CA3AF"/>
<path d="M6 24V12C6 11.4477 5.55228 11 5 11C4.44772 11 4 11.4477 4 12V24C4 24.8284 4.58579 25.4142 4.58579 25.4142C5.17157 26 6 26 6 26H26C26.8284 26 27.4142 25.4142 27.4142 25.4142C28 24.8284 28 24 28 24V12C28 11.4477 27.5523 11 27 11C26.4477 11 26 11.4477 26 12V24H6Z" fill="#9CA3AF"/>
<path d="M13 18H19C19.5523 18 20 17.5523 20 17C20 16.4477 19.5523 16 19 16H13C12.4477 16 12 16.4477 12 17C12 17.5523 12.4477 18 13 18Z" fill="#9CA3AF"/>
</svg>
