<svg width="18" height="22" viewBox="0 0 18 22" fill="none" xmlns="http://www.w3.org/2000/svg">
<path d="M2.625 0.5C1.58947 0.5 0.75 1.33947 0.75 2.375V19.625C0.75 20.6605 1.58947 21.5 2.625 21.5H15.375C16.4105 21.5 17.25 20.6605 17.25 19.625V11.75C17.25 9.67893 15.5711 8 13.5 8H11.625C10.5895 8 9.75 7.16053 9.75 6.125V4.25C9.75 2.17893 8.07107 0.5 6 0.5H2.625Z" fill="#0F172A"/>
<path d="M9.97119 0.815905C10.768 1.73648 11.25 2.93695 11.25 4.25V6.125C11.25 6.33211 11.4179 6.5 11.625 6.5H13.5C14.8131 6.5 16.0135 6.98204 16.9341 7.77881C16.0462 4.37988 13.3701 1.70377 9.97119 0.815905Z" fill="#0F172A"/>
</svg>
