<svg width="32" height="32" viewBox="0 0 32 32" fill="none" xmlns="http://www.w3.org/2000/svg">
<path fill-rule="evenodd" clip-rule="evenodd" d="M15.4453 3.16795C15.7812 2.94402 16.2188 2.94402 16.5547 3.16795L28.5547 11.1679C28.8329 11.3534 29 11.6656 29 12V25C29 25 29 25.8284 28.4142 26.4142C28.4142 26.4142 27.8284 27 27 27H5C5 27 4.17157 27 3.58579 26.4142C3.58579 26.4142 3 25.8284 3 25V12C3 11.6656 3.1671 11.3534 3.4453 11.1679L15.4453 3.16795ZM5 12.5352L16 5.20185L27 12.5352V25H5V12.5352Z" fill="#9CA3AF"/>
<path d="M13.235 18.1836L3.73544 24.8958C3.51884 25.0488 3.3719 25.2817 3.32696 25.5431C3.31734 25.599 3.3125 25.6557 3.3125 25.7125L3.31279 25.7367C3.31759 25.935 3.38129 26.1275 3.4958 26.2896C3.68321 26.5548 3.98774 26.7125 4.3125 26.7125C4.32453 26.7125 4.33657 26.7123 4.34859 26.7118C4.54283 26.7048 4.73082 26.6414 4.88956 26.5292L14.3891 19.817C14.6544 19.6296 14.8125 19.3248 14.8125 19C14.8125 18.988 14.8123 18.9759 14.8118 18.9639C14.8048 18.7697 14.7414 18.5817 14.6292 18.4229C14.4762 18.2063 14.2433 18.0594 13.9819 18.0145C13.926 18.0048 13.8693 18 13.8125 18L13.7883 18.0003C13.59 18.0051 13.3971 18.0691 13.235 18.1836Z" fill="#9CA3AF"/>
<path d="M28.2646 24.8958L18.7646 18.1833C18.5958 18.064 18.3942 18 18.1875 18C18.1652 18 18.143 18.0007 18.1207 18.0022C17.8202 18.0223 17.5446 18.1769 17.3708 18.4229C17.2515 18.5917 17.1875 18.7933 17.1875 19C17.1875 19.0223 17.1882 19.0445 17.1897 19.0668C17.2098 19.3673 17.3644 19.6429 17.6104 19.8167L27.1104 26.5292C27.2792 26.6485 27.4808 26.7125 27.6875 26.7125C27.7098 26.7125 27.732 26.7118 27.7543 26.7103C28.0549 26.6902 28.3304 26.5356 28.5042 26.2896C28.6235 26.1208 28.6875 25.9192 28.6875 25.7125C28.6875 25.6902 28.6868 25.668 28.6853 25.6457C28.6652 25.3451 28.5106 25.0696 28.2646 24.8958Z" fill="#9CA3AF"/>
<path d="M14.1326 18L4.58075 11.1859C4.41124 11.065 4.20822 11 4 11C3.97923 11 3.95847 11.0006 3.93775 11.0019C3.63707 11.0207 3.36087 11.174 3.18592 11.4193C3.06499 11.5888 3 11.7918 3 12C3 12.0208 3.00065 12.0415 3.00194 12.0623C3.02069 12.3629 3.174 12.6391 3.41925 12.8141L13.2318 19.8141C13.4013 19.935 13.6043 20 13.8125 20H18.1875C18.3957 20 18.5987 19.935 18.7682 19.8141L28.5807 12.8141C28.8438 12.6264 29 12.3232 29 12C29 11.9865 28.9997 11.9729 28.9992 11.9594C28.9913 11.7652 28.927 11.5775 28.8141 11.4193C28.6601 11.2033 28.4266 11.0575 28.165 11.0137C28.1105 11.0046 28.0553 11 28 11L27.9713 11.0004C27.773 11.0061 27.5808 11.0707 27.4193 11.1859L17.8674 18H14.1326Z" fill="#9CA3AF"/>
</svg>
