<svg width="32" height="32" viewBox="0 0 32 32" fill="none" xmlns="http://www.w3.org/2000/svg">
<path d="M25.1961 8.60468C25.1892 8.59125 25.1776 8.58073 25.1636 8.57499C23.5427 7.83317 21.8322 7.30419 20.0749 7.0013C20.059 6.99834 20.0425 7.00047 20.0278 7.0074C20.0131 7.01433 20.001 7.0257 19.9932 7.03989C19.7602 7.46158 19.5488 7.89472 19.3597 8.33766C17.4654 8.05083 15.5385 8.05083 13.6442 8.33766C13.4538 7.89359 13.239 7.46034 13.0007 7.03989C12.9926 7.02601 12.9804 7.0149 12.9658 7.00802C12.9512 7.00113 12.9349 6.99879 12.9189 7.0013C11.1614 7.30356 9.45083 7.83257 7.83015 8.57504C7.81628 8.5809 7.80457 8.59092 7.79665 8.60371C4.55561 13.4317 3.66777 18.1409 4.10331 22.7919C4.10454 22.8033 4.10805 22.8143 4.11363 22.8243C4.11922 22.8343 4.12677 22.8431 4.13584 22.8502C6.02306 24.244 8.13395 25.308 10.3784 25.9966C10.3942 26.0013 10.4111 26.0011 10.4268 25.996C10.4425 25.9909 10.4562 25.9811 10.4661 25.9679C10.9482 25.3137 11.3753 24.6208 11.7432 23.8965C11.7483 23.8866 11.7512 23.8757 11.7517 23.8645C11.7522 23.8534 11.7504 23.8423 11.7463 23.8319C11.7422 23.8215 11.7359 23.8122 11.7279 23.8044C11.7199 23.7966 11.7104 23.7906 11.6999 23.7867C11.0263 23.5297 10.3742 23.2198 9.74972 22.8599C9.73837 22.8533 9.72884 22.844 9.72197 22.8328C9.71511 22.8216 9.71111 22.8088 9.71033 22.7957C9.70955 22.7826 9.71202 22.7695 9.71752 22.7576C9.72301 22.7457 9.73137 22.7353 9.74185 22.7274C9.87289 22.6294 10.004 22.5276 10.1291 22.4247C10.1403 22.4155 10.1537 22.4097 10.168 22.4078C10.1823 22.4059 10.1968 22.4079 10.2099 22.4138C14.3013 24.2764 18.7308 24.2764 22.7737 22.4138C22.7869 22.4076 22.8016 22.4052 22.8161 22.4069C22.8306 22.4087 22.8442 22.4145 22.8555 22.4237C22.9807 22.5266 23.1118 22.6294 23.2438 22.7274C23.2543 22.7352 23.2628 22.7455 23.2684 22.7574C23.2739 22.7693 23.2765 22.7824 23.2758 22.7955C23.2751 22.8086 23.2712 22.8213 23.2645 22.8326C23.2577 22.8438 23.2482 22.8532 23.2369 22.8599C22.6138 23.2228 21.9611 23.5325 21.2858 23.7858C21.2753 23.7897 21.2658 23.7959 21.2579 23.8038C21.2499 23.8117 21.2437 23.8212 21.2397 23.8316C21.2357 23.8421 21.2339 23.8533 21.2346 23.8645C21.2352 23.8756 21.2382 23.8866 21.2433 23.8965C21.6173 24.6168 22.0438 25.3088 22.5194 25.9668C22.5291 25.9803 22.5427 25.9904 22.5585 25.9957C22.5742 26.0011 22.5912 26.0013 22.6071 25.9965C24.8556 25.3102 26.9702 24.2461 28.8598 22.8502C28.869 22.8435 28.8766 22.8349 28.8822 22.825C28.8879 22.8151 28.8913 22.8042 28.8923 22.7928C29.4137 17.4159 28.0193 12.7452 25.1961 8.60468ZM12.3542 19.9599C11.1224 19.9599 10.1075 18.8324 10.1075 17.4476C10.1075 16.0628 11.1027 14.9351 12.3542 14.9351C13.6155 14.9351 14.6207 16.0726 14.601 17.4475C14.601 18.8324 13.6056 19.9599 12.3542 19.9599ZM20.6612 19.9599C19.4295 19.9599 18.4145 18.8324 18.4145 17.4476C18.4145 16.0628 19.4098 14.9351 20.6612 14.9351C21.9226 14.9351 22.9277 16.0726 22.908 17.4475C22.908 18.8324 21.9226 19.9599 20.6612 19.9599Z" fill="#9CA3AF"/>
</svg>
