<svg width="32" height="32" viewBox="0 0 32 32" fill="none" xmlns="http://www.w3.org/2000/svg">
<path d="M4.67572 6.26285C4.49129 6.09379 4.25019 6 4 6C3.98552 6 3.97103 6.00031 3.95656 6.00094C3.6916 6.01246 3.44206 6.12877 3.26285 6.32428C3.09379 6.50871 3 6.74981 3 7C3 7.01448 3.00031 7.02897 3.00094 7.04344C3.01246 7.3084 3.12877 7.55794 3.32428 7.73715L15.3243 18.7372C15.7066 19.0876 16.2934 19.0876 16.6757 18.7372L28.6751 7.73777C28.8817 7.54836 29 7.28031 29 7L29 6.99169C28.9979 6.74437 28.9043 6.50659 28.7372 6.32428C28.5579 6.12877 28.3084 6.01246 28.0434 6.00094C28.029 6.00031 28.0145 6 28 6L27.9954 6.00001C27.7468 6.00115 27.5075 6.09486 27.3243 6.26285L16 16.6434L4.67572 6.26285Z" fill="#9CA3AF"/>
<path fill-rule="evenodd" clip-rule="evenodd" d="M3 24V7C3 6.44772 3.44772 6 4 6L28 6C28.5523 6 29 6.44772 29 7V24C29 24 29 24.8284 28.4142 25.4142C28.4142 25.4142 27.8284 26 27 26H5C5 26 4.17157 26 3.58579 25.4142C3.58579 25.4142 3 24.8284 3 24ZM5 24H27V8H5V24Z" fill="#9CA3AF"/>
<path d="M13.1366 15.263L3.6366 23.9755C3.43008 24.1649 3.3125 24.4323 3.3125 24.7125L3.31254 24.7211C3.31465 24.9684 3.40834 25.2061 3.57551 25.3884C3.76491 25.5949 4.03228 25.7125 4.3125 25.7125L4.32105 25.7125C4.56837 25.7103 4.80612 25.6167 4.9884 25.4495L14.4884 16.737C14.6949 16.5476 14.8125 16.2802 14.8125 16L14.8125 15.9914C14.8103 15.7441 14.7167 15.5064 14.5495 15.3241C14.3702 15.1286 14.1207 15.0124 13.8557 15.0009C13.8413 15.0003 13.8269 15 13.8125 15L13.8077 15C13.5591 15.0012 13.3198 15.095 13.1366 15.263Z" fill="#9CA3AF"/>
<path d="M28.3634 23.9755L18.8634 15.263C18.679 15.0938 18.4378 15 18.1875 15C18.1731 15 18.1587 15.0003 18.1443 15.0009C17.8793 15.0124 17.6298 15.1286 17.4505 15.3241C17.2813 15.5085 17.1875 15.7497 17.1875 16C17.1875 16.0144 17.1878 16.0288 17.1884 16.0432C17.1999 16.3082 17.3161 16.5577 17.5116 16.737L27.0113 25.4493C27.1958 25.6184 27.4372 25.7125 27.6875 25.7125C27.7019 25.7125 27.7163 25.7122 27.7307 25.7116C27.9957 25.7001 28.2452 25.5839 28.4245 25.3884C28.5937 25.204 28.6875 24.9628 28.6875 24.7125C28.6875 24.6981 28.6872 24.6837 28.6866 24.6693C28.6751 24.4043 28.5589 24.1548 28.3634 23.9755Z" fill="#9CA3AF"/>
</svg>
