<svg width="32" height="32" viewBox="0 0 32 32" fill="none" xmlns="http://www.w3.org/2000/svg">
<path fill-rule="evenodd" clip-rule="evenodd" d="M5.26219 5C4.66769 5.00019 4.16982 5.32508 4.16982 5.32508C3.67196 5.64997 3.43239 6.19406 3.43239 6.19406C3.19283 6.73816 3.28937 7.32476 3.28937 7.32476C3.3859 7.91137 3.78719 8.35 3.78719 8.35L11.9974 17.385L11.9985 17.3856C12 17.3854 12.0001 17.3779 12.0001 17.3779L12 27.1375C12.0056 27.6966 12.2906 28.1658 12.2906 28.1658C12.5757 28.6349 13.0603 28.8929 13.0603 28.8929C13.5449 29.1508 14.0932 29.1252 14.0932 29.1252C14.6416 29.0996 15.1001 28.7976 15.1001 28.7976L19.1041 26.1325C19.522 25.8614 19.7633 25.4123 19.7633 25.4123C20.0046 24.9632 20 24.4533 20 24.4533L20 17.3877L28.2151 8.34752C28.6141 7.91137 28.7106 7.32477 28.7106 7.32477C28.8072 6.73815 28.5676 6.19406 28.5676 6.19406C28.3281 5.64997 27.8302 5.32508 27.8302 5.32508C27.3323 5.00019 26.7378 5 26.7378 5H5.26219ZM13.4776 16.04L5.26282 7L26.7372 7L26.7349 7.00248L18.5318 16.0298C17.9924 16.6071 18 17.3875 18 17.3875L18 24.4651L17.998 24.4662L17.9959 24.4675L14 27.1273L14 17.3971C14.0076 16.6071 13.4776 16.04 13.4776 16.04Z" fill="#9CA3AF"/>
</svg>
