<svg width="32" height="32" viewBox="0 0 32 32" fill="none" xmlns="http://www.w3.org/2000/svg">
<path fill-rule="evenodd" clip-rule="evenodd" d="M16 9C16 9 18.8995 9 20.9497 11.0503C20.9497 11.0503 23 13.1005 23 16C23 16 23 18.8995 20.9497 20.9497C20.9497 20.9497 18.8995 23 16 23C16 23 13.1005 23 11.0503 20.9497C11.0503 20.9497 9 18.8995 9 16C9 16 9 13.1005 11.0503 11.0503C11.0503 11.0503 13.1005 9 16 9ZM16 11C16 11 13.9289 11 12.4645 12.4645C12.4645 12.4645 11 13.9289 11 16C11 16 11 18.0711 12.4645 19.5355C12.4645 19.5355 13.9289 21 16 21C16 21 18.0711 21 19.5355 19.5355C19.5355 19.5355 21 18.0711 21 16C21 16 21 13.9289 19.5355 12.4645C19.5355 12.4645 18.0711 11 16 11Z" fill="#9CA3AF"/>
<path fill-rule="evenodd" clip-rule="evenodd" d="M23.4649 4.58354L23.9029 7.64937C23.9029 7.64937 24.1326 7.87024 24.3508 8.09706L27.4164 8.53501C27.7207 8.57849 27.9881 8.75954 28.1416 9.02596C28.1416 9.02596 29.044 10.5933 29.5154 12.3393C29.5957 12.6366 29.5345 12.9543 29.3495 13.2005L27.4871 15.68C27.4871 15.68 27.4973 16.0437 27.4912 16.3254L29.3495 18.7994C29.5342 19.0452 29.5955 19.3624 29.5157 19.6594C29.5157 19.6594 29.0462 21.4075 28.1409 22.9751C27.9874 23.2409 27.7203 23.4215 27.4164 23.4649L24.3434 23.9039C24.3434 23.9039 24.096 24.158 23.9034 24.3467L23.4649 27.4164C23.4214 27.7207 23.2404 27.9881 22.974 28.1416C22.974 28.1416 21.4067 29.044 19.6606 29.5154C19.3633 29.5957 19.0456 29.5345 18.7994 29.3495L16.3323 27.4964C16.3323 27.4964 16 27.5099 15.6676 27.4964L13.2005 29.3495C12.9547 29.5342 12.6375 29.5955 12.3406 29.5157C12.3406 29.5157 10.5924 29.0462 9.02486 28.1409C8.75902 27.9874 8.57842 27.7203 8.53501 27.4164L8.09625 24.3451C8.09625 24.3451 7.87267 24.1273 7.65483 23.9037L4.58354 23.4649C4.2792 23.4214 4.01177 23.2404 3.85836 22.974C3.85836 22.974 2.95588 21.4067 2.48452 19.6606C2.40426 19.3633 2.46545 19.0456 2.65039 18.7994L4.51277 16.32C4.51277 16.32 4.50264 15.9562 4.50868 15.6745L2.65039 13.2005C2.46572 12.9547 2.40443 12.6375 2.48419 12.3406C2.48419 12.3406 2.95374 10.5924 3.85899 9.02486C4.01252 8.75902 4.27964 8.57842 4.58354 8.53501L7.65483 8.09625C7.65483 8.09625 7.87266 7.87266 8.09625 7.65483L8.53501 4.58354C8.57849 4.2792 8.75954 4.01177 9.02596 3.85836C9.02596 3.85836 10.5933 2.95588 12.3393 2.48452C12.6366 2.40426 12.9543 2.46545 13.2005 2.65039L15.6676 4.5035C15.6676 4.5035 16 4.49004 16.3323 4.5035L18.7994 2.65039C19.0452 2.46572 19.3624 2.40443 19.6594 2.48419C19.6594 2.48419 21.4075 2.95374 22.9751 3.85899C23.2409 4.01252 23.4215 4.27964 23.4649 4.58354ZM21.9725 8.27888L21.5555 5.35985C21.5555 5.35985 20.6151 4.86611 19.6012 4.54946L17.238 6.32452C17.0406 6.47281 16.7953 6.54282 16.5494 6.52107C16.5494 6.52107 16 6.47249 15.4505 6.52107C15.2046 6.54282 14.9593 6.47281 14.7619 6.32452L12.3992 4.54987C12.3992 4.54987 11.3854 4.86755 10.4443 5.36054L10.0274 8.27888C9.99547 8.50249 9.88876 8.7087 9.72466 8.86393C9.72466 8.86393 9.28234 9.28234 8.86393 9.72466C8.7087 9.88876 8.50249 9.99547 8.27888 10.0274L5.35985 10.4444C5.35985 10.4444 4.86612 11.3848 4.54946 12.3987L6.32452 14.7619C6.47277 14.9592 6.54278 15.2045 6.52109 15.4504C6.52109 15.4504 6.4894 15.8095 6.52399 16.5934C6.5342 16.8249 6.4637 17.0528 6.32452 17.238L4.54987 19.6007C4.54987 19.6007 4.86755 20.6145 5.36054 21.5556L8.27888 21.9725C8.50249 22.0045 8.7087 22.1112 8.86393 22.2753C8.86393 22.2753 9.28235 22.7176 9.72466 23.136C9.88876 23.2912 9.99547 23.4974 10.0274 23.721L10.4444 26.6401C10.4444 26.6401 11.3848 27.1338 12.3987 27.4505L14.7619 25.6754C14.9593 25.5271 15.2046 25.4571 15.4505 25.4788C15.4505 25.4788 16 25.5274 16.5494 25.4788C16.7953 25.4571 17.0406 25.5271 17.238 25.6754L19.6007 27.45C19.6007 27.45 20.6145 27.1324 21.5556 26.6394L21.9725 23.721C22.0051 23.4927 22.1157 23.2827 22.2854 23.1265C22.2854 23.1265 22.5749 22.8602 23.1408 22.2702C23.2955 22.1089 23.4998 22.0041 23.721 21.9725L26.6401 21.5555C26.6401 21.5555 27.1338 20.6151 27.4505 19.6012L25.6754 17.238C25.5271 17.0407 25.4571 16.7955 25.4788 16.5496C25.4788 16.5496 25.5105 16.1905 25.4759 15.4065C25.4657 15.175 25.5362 14.9472 25.6754 14.7619L27.45 12.3992C27.45 12.3992 27.1324 11.3854 26.6394 10.4443L23.721 10.0274C23.4925 9.99476 23.2823 9.88406 23.1261 9.71408C23.1261 9.71408 22.7293 9.28227 22.285 8.87301C22.1155 8.71688 22.0051 8.50701 21.9725 8.27888Z" fill="#9CA3AF"/>
</svg>
