<svg width="32" height="32" viewBox="0 0 32 32" fill="none" xmlns="http://www.w3.org/2000/svg">
<path d="M16 32C24.8366 32 32 24.8366 32 16C32 7.16344 24.8366 0 16 0C7.16344 0 0 7.16344 0 16C0 24.8366 7.16344 32 16 32ZM28.8595 21.5438C27.4459 24.8183 24.8183 27.4459 21.5438 28.8595L19.3135 23.2837C21.0686 22.484 22.484 21.0686 23.2837 19.3135L28.8595 21.5438ZM10.4562 28.8595C7.18171 27.4459 4.55406 24.8183 3.14051 21.5438L8.71631 19.3135C9.51601 21.0686 10.9314 22.484 12.6865 23.2837L10.4562 28.8595ZM28.8595 10.4562L23.2837 12.6865C22.484 10.9314 21.0686 9.51601 19.3135 8.71631L21.5438 3.14051C24.8183 4.55406 27.4459 7.18171 28.8595 10.4562ZM12.6865 8.71631C10.9314 9.51601 9.51601 10.9314 8.71631 12.6865L3.14051 10.4562C4.55406 7.18171 7.18171 4.55406 10.4562 3.14051L12.6865 8.71631ZM16 22C12.6863 22 10 19.3137 10 16C10 12.6863 12.6863 10 16 10C19.3137 10 22 12.6863 22 16C22 19.3137 19.3137 22 16 22Z" fill="#9CA3AF"/>
</svg>
