<svg width="19" height="14" viewBox="0 0 19 14" fill="none" xmlns="http://www.w3.org/2000/svg">
<path fill-rule="evenodd" clip-rule="evenodd" d="M0.625 1.75C0.625 1.12868 1.12868 0.625 1.75 0.625C2.37132 0.625 2.875 1.12868 2.875 1.75C2.875 2.37132 2.37132 2.875 1.75 2.875C1.12868 2.875 0.625 2.37132 0.625 1.75ZM5.5 1.75C5.5 1.33579 5.83579 1 6.25 1H18.25C18.6642 1 19 1.33579 19 1.75C19 2.16421 18.6642 2.5 18.25 2.5H6.25C5.83579 2.5 5.5 2.16421 5.5 1.75ZM0.625 7C0.625 6.37868 1.12868 5.875 1.75 5.875C2.37132 5.875 2.875 6.37868 2.875 7C2.875 7.62132 2.37132 8.125 1.75 8.125C1.12868 8.125 0.625 7.62132 0.625 7ZM5.5 7C5.5 6.58579 5.83579 6.25 6.25 6.25H18.25C18.6642 6.25 19 6.58579 19 7C19 7.41421 18.6642 7.75 18.25 7.75H6.25C5.83579 7.75 5.5 7.41421 5.5 7ZM0.625 12.25C0.625 11.6287 1.12868 11.125 1.75 11.125C2.37132 11.125 2.875 11.6287 2.875 12.25C2.875 12.8713 2.37132 13.375 1.75 13.375C1.12868 13.375 0.625 12.8713 0.625 12.25ZM5.5 12.25C5.5 11.8358 5.83579 11.5 6.25 11.5H18.25C18.6642 11.5 19 11.8358 19 12.25C19 12.6642 18.6642 13 18.25 13H6.25C5.83579 13 5.5 12.6642 5.5 12.25Z" fill="#0F172A"/>
</svg>
