<svg width="20" height="20" viewBox="0 0 20 20" fill="none" xmlns="http://www.w3.org/2000/svg">
<path fill-rule="evenodd" clip-rule="evenodd" d="M4.96967 0.46967C5.26256 0.176777 5.73744 0.176777 6.03033 0.46967L10.5303 4.96967C10.8232 5.26256 10.8232 5.73744 10.5303 6.03033C10.2374 6.32322 9.76256 6.32322 9.46967 6.03033L6.25 2.81066V14.5C6.25 14.9142 5.91421 15.25 5.5 15.25C5.08579 15.25 4.75 14.9142 4.75 14.5V2.81066L1.53033 6.03033C1.23744 6.32322 0.762563 6.32322 0.46967 6.03033C0.176777 5.73744 0.176777 5.26256 0.46967 4.96967L4.96967 0.46967ZM14.5 4.75C14.9142 4.75 15.25 5.08579 15.25 5.5L15.25 17.1893L18.4697 13.9697C18.7626 13.6768 19.2374 13.6768 19.5303 13.9697C19.8232 14.2626 19.8232 14.7374 19.5303 15.0303L15.0303 19.5303C14.8897 19.671 14.6989 19.75 14.5 19.75C14.3011 19.75 14.1103 19.671 13.9697 19.5303L9.46967 15.0303C9.17678 14.7374 9.17678 14.2626 9.46967 13.9697C9.76256 13.6768 10.2374 13.6768 10.5303 13.9697L13.75 17.1893L13.75 5.5C13.75 5.08579 14.0858 4.75 14.5 4.75Z" fill="#0F172A"/>
</svg>
