<svg width="32" height="32" viewBox="0 0 32 32" fill="none" xmlns="http://www.w3.org/2000/svg">
<path fill-rule="evenodd" clip-rule="evenodd" d="M12.8022 28.7378C12.8022 28.7378 14.1202 29.4331 15.359 29.8446C15.359 29.8446 16 30.0752 16.641 29.8446C16.641 29.8446 17.8799 29.4331 19.1978 28.7378C19.1978 28.7378 21.3166 27.62 22.999 26.0718C22.999 26.0718 28 21.4695 28 14.3375V7C28 7 28 6.17157 27.4142 5.58579C27.4142 5.58579 26.8284 5 26 5H6C6 5 5.17157 5 4.58579 5.58579C4.58579 5.58579 4 6.17157 4 7V14.3375C4 14.3375 4 21.4695 9.00096 26.0718C9.00096 26.0718 10.6834 27.62 12.8022 28.7378ZM18.2647 26.9688C18.2647 26.9688 17.087 27.5901 16 27.9501C16 27.9501 14.913 27.5901 13.7353 26.9688C13.7353 26.9688 11.8464 25.9724 10.3553 24.6001C10.3553 24.6001 6 20.592 6 14.3375V7H26V14.3375C26 14.3375 26 20.592 21.6447 24.6001C21.6447 24.6001 20.1536 25.9724 18.2647 26.9688Z" fill="#9CA3AF"/>
<path d="M15 12V17C15 17.5523 15.4477 18 16 18C16.5523 18 17 17.5523 17 17V12C17 11.4477 16.5523 11 16 11C15.4477 11 15 11.4477 15 12Z" fill="#9CA3AF"/>
<path d="M10.9398 16.4006L15.6898 17.9506C15.7899 17.9833 15.8946 18 16 18C16.0205 18 16.041 17.9993 16.0615 17.9981C16.4709 17.9728 16.8234 17.7001 16.9507 17.3102C16.9833 17.21 17 17.1054 17 17L16.9996 16.9724C16.9955 16.8244 16.9586 16.6791 16.8916 16.5471C16.7715 16.3106 16.5623 16.1316 16.3102 16.0493L11.5602 14.4993C11.4601 14.4666 11.3554 14.45 11.25 14.45C11.2295 14.45 11.209 14.4506 11.1885 14.4518C10.7791 14.4771 10.4266 14.7498 10.2993 15.1397C10.2667 15.2399 10.25 15.3446 10.25 15.45C10.25 15.4705 10.2506 15.491 10.2519 15.5114C10.2771 15.9209 10.5498 16.2734 10.9398 16.4006Z" fill="#9CA3AF"/>
<path d="M16.8095 17.5871C16.9333 17.4164 17 17.2109 17 17C17 16.9474 16.9958 16.8947 16.9876 16.8428C16.9459 16.5809 16.8018 16.3462 16.5871 16.1905C16.4164 16.0667 16.2109 16 16 16C15.9819 16 15.9637 16.0005 15.9456 16.0015C15.6448 16.0179 15.3674 16.169 15.1905 16.4129L12.253 20.4629C12.1292 20.6336 12.0625 20.8391 12.0625 21.05C12.0625 21.0681 12.063 21.0863 12.064 21.1044C12.0804 21.4052 12.2315 21.6826 12.4754 21.8595C12.6461 21.9833 12.8516 22.05 13.0625 22.05C13.1151 22.05 13.1678 22.0458 13.2197 22.0376C13.4817 21.9959 13.7163 21.8518 13.872 21.6371L16.8095 17.5871Z" fill="#9CA3AF"/>
<path d="M16.8095 16.4129C16.6214 16.1535 16.3204 16 16 16C15.9838 16 15.9677 16.0004 15.9515 16.0012C15.7574 16.0106 15.5702 16.0764 15.4129 16.1905C15.1535 16.3786 15 16.6796 15 17C15 17.0162 15.0004 17.0323 15.0012 17.0485C15.0106 17.2426 15.0764 17.4298 15.1905 17.5871L18.128 21.6371C18.3161 21.8965 18.6171 22.05 18.9375 22.05C18.9537 22.05 18.9698 22.0496 18.986 22.0488C19.1801 22.0394 19.3673 21.9736 19.5246 21.8595C19.784 21.6714 19.9375 21.3704 19.9375 21.05C19.9375 21.0338 19.9371 21.0177 19.9363 21.0015C19.9269 20.8074 19.8611 20.6202 19.747 20.4629L16.8095 16.4129Z" fill="#9CA3AF"/>
<path d="M20.4398 14.4993L15.6898 16.0493C15.2784 16.1835 15 16.5672 15 17L15.0001 17.0123C15.0013 17.1135 15.0179 17.2139 15.0493 17.3102C15.1836 17.7216 15.5672 18 16 18L16.0123 17.9999C16.1135 17.9986 16.214 17.982 16.3102 17.9506L21.0602 16.4006C21.3123 16.3183 21.5215 16.1393 21.6416 15.9028C21.7129 15.7625 21.75 15.6073 21.75 15.45L21.7498 15.4279C21.7476 15.3299 21.7311 15.2329 21.7007 15.1397C21.5664 14.7283 21.1828 14.45 20.75 14.45L20.7377 14.45C20.6365 14.4513 20.536 14.4679 20.4398 14.4993Z" fill="#9CA3AF"/>
</svg>
