<svg width="29" height="29" viewBox="0 0 29 29" fill="none" xmlns="http://www.w3.org/2000/svg">
<path d="M23.1871 14.5L19.0705 18.6167C18.9005 18.7866 18.8047 19.0175 18.8047 19.2578C18.8047 19.2723 18.805 19.2868 18.8057 19.3013C18.8166 19.5264 18.9108 19.7393 19.0701 19.8986C19.2401 20.0686 19.4706 20.1641 19.7109 20.1641C19.9513 20.1641 20.1818 20.0686 20.3518 19.8986L25.1096 15.1408C25.2795 14.9709 25.375 14.7404 25.375 14.5C25.375 14.2596 25.2795 14.0291 25.1096 13.8592L20.3519 9.10148C20.1818 8.93142 19.9513 8.83594 19.7109 8.83594C19.4706 8.83594 19.2401 8.93142 19.0701 9.10137C18.9002 9.27133 18.8047 9.50183 18.8047 9.74219C18.8047 9.98254 18.9002 10.213 19.0701 10.383L23.1871 14.5Z" fill="#9CA3AF"/>
<path d="M11.7812 15.4062H24.4688C24.9693 15.4062 25.375 15.0005 25.375 14.5C25.375 13.9995 24.9693 13.5938 24.4688 13.5938H11.7812C11.2807 13.5938 10.875 13.9995 10.875 14.5C10.875 15.0005 11.2807 15.4062 11.7812 15.4062Z" fill="#9CA3AF"/>
<path d="M5.4375 5.4375H11.7812C12.2818 5.4375 12.6875 5.03176 12.6875 4.53125C12.6875 4.03074 12.2818 3.625 11.7812 3.625H5.4375C4.68674 3.625 4.15587 4.15587 4.15587 4.15587C3.625 4.68674 3.625 5.4375 3.625 5.4375V23.5625C3.625 24.3133 4.15587 24.8441 4.15587 24.8441C4.68674 25.375 5.4375 25.375 5.4375 25.375H11.7812C12.2818 25.375 12.6875 24.9693 12.6875 24.4688C12.6875 23.9682 12.2818 23.5625 11.7812 23.5625H5.4375V5.4375Z" fill="#9CA3AF"/>
</svg>
