<svg width="29" height="29" viewBox="0 0 29 29" fill="none" xmlns="http://www.w3.org/2000/svg">
<path d="M18.0861 13.1018C18.2561 12.9318 18.3516 12.7013 18.3516 12.4609C18.3516 12.2206 18.2561 11.9901 18.0861 11.8201C17.9162 11.6502 17.6857 11.5547 17.4453 11.5547C17.205 11.5547 16.9745 11.6502 16.8045 11.8201L12.6875 15.9371L8.57084 11.8205C8.40089 11.6505 8.17004 11.5547 7.92969 11.5547C7.91517 11.5547 7.90066 11.555 7.88616 11.5557C7.66112 11.5666 7.44818 11.6608 7.28887 11.8201C7.11892 11.9901 7.02344 12.2206 7.02344 12.4609C7.02344 12.7013 7.11892 12.9318 7.28887 13.1018L12.0467 17.8596C12.2166 18.0295 12.4471 18.125 12.6875 18.125C12.9279 18.125 13.1584 18.0295 13.3283 17.8596L18.0861 13.1018Z" fill="#9CA3AF"/>
<path d="M11.7812 4.53125L11.7812 17.2187C11.7812 17.7193 12.187 18.125 12.6875 18.125C13.188 18.125 13.5937 17.7193 13.5937 17.2187L13.5937 4.53125C13.5937 4.03074 13.188 3.625 12.6875 3.625C12.187 3.625 11.7812 4.03074 11.7812 4.53125Z" fill="#9CA3AF"/>
<path d="M3.625 23.5625L3.625 17.2187C3.625 16.7182 3.21926 16.3125 2.71875 16.3125C2.21824 16.3125 1.8125 16.7182 1.8125 17.2187L1.8125 23.5625C1.8125 24.3133 2.34337 24.8441 2.34337 24.8441C2.87424 25.375 3.625 25.375 3.625 25.375L21.75 25.375C22.5008 25.375 23.0316 24.8441 23.0316 24.8441C23.5625 24.3133 23.5625 23.5625 23.5625 23.5625L23.5625 17.2188C23.5625 16.7182 23.1568 16.3125 22.6562 16.3125C22.1557 16.3125 21.75 16.7182 21.75 17.2187L21.75 23.5625L3.625 23.5625Z" fill="#9CA3AF"/>
</svg>
