<svg width="26" height="26" viewBox="0 0 26 26" fill="none" xmlns="http://www.w3.org/2000/svg">
<path fill-rule="evenodd" clip-rule="evenodd" d="M13 0C13 0 15.6442 0 18.0605 1.02201C18.0605 1.02201 20.3936 2.00884 22.1924 3.80761C22.1924 3.80761 23.9912 5.60638 24.978 7.93951C24.978 7.93951 26 10.3558 26 13C26 13 26 15.6442 24.978 18.0605C24.978 18.0605 23.9912 20.3936 22.1924 22.1924C22.1924 22.1924 20.3936 23.9912 18.0605 24.978C18.0605 24.978 15.6442 26 13 26C13 26 10.3558 26 7.93951 24.978C7.93951 24.978 5.60638 23.9912 3.80761 22.1924C3.80761 22.1924 2.00884 20.3936 1.02202 18.0605C1.02202 18.0605 0 15.6442 0 13C0 13 0 10.3558 1.02202 7.93951C1.02202 7.93951 2.00885 5.60638 3.80761 3.80761C3.80761 3.80761 5.60638 2.00884 7.93951 1.02201C7.93951 1.02201 10.3558 0 13 0ZM13 2C13 2 10.7614 2 8.71861 2.86402C8.71861 2.86402 6.74476 3.69889 5.22183 5.22182C5.22183 5.22182 3.6989 6.74476 2.86402 8.71861C2.86402 8.71861 2 10.7614 2 13C2 13 2 15.2386 2.86402 17.2814C2.86402 17.2814 3.69889 19.2552 5.22183 20.7782C5.22183 20.7782 6.74476 22.3011 8.71861 23.136C8.71861 23.136 10.7614 24 13 24C13 24 15.2386 24 17.2814 23.136C17.2814 23.136 19.2552 22.3011 20.7782 20.7782C20.7782 20.7782 22.3011 19.2552 23.136 17.2814C23.136 17.2814 24 15.2386 24 13C24 13 24 10.7614 23.136 8.71861C23.136 8.71861 22.3011 6.74476 20.7782 5.22183C20.7782 5.22183 19.2552 3.69889 17.2814 2.86402C17.2814 2.86402 15.2386 2 13 2Z" fill="#9CA3AF"/>
<path fill-rule="evenodd" clip-rule="evenodd" d="M13 5C13 5 16.3137 5 18.6569 7.34315C18.6569 7.34315 21 9.68629 21 13C21 13 21 16.3137 18.6569 18.6569C18.6569 18.6569 16.3137 21 13 21C13 21 9.68629 21 7.34315 18.6569C7.34315 18.6569 5 16.3137 5 13C5 13 5 9.68629 7.34315 7.34315C7.34315 7.34315 9.68629 5 13 5ZM13 7C13 7 10.5147 7 8.75736 8.75736C8.75736 8.75736 7 10.5147 7 13C7 13 7 15.4853 8.75736 17.2426C8.75736 17.2426 10.5147 19 13 19C13 19 15.4853 19 17.2426 17.2426C17.2426 17.2426 19 15.4853 19 13C19 13 19 10.5147 17.2426 8.75736C17.2426 8.75736 15.4853 7 13 7Z" fill="#9CA3AF"/>
<path d="M14 6V1C14 0.447715 13.5523 0 13 0C12.4477 0 12 0.447715 12 1V6C12 6.55228 12.4477 7 13 7C13.5523 7 14 6.55228 14 6Z" fill="#9CA3AF"/>
<path d="M5.2196 3.80534C5.03207 3.61781 4.77771 3.51245 4.5125 3.51245C4.24728 3.51245 3.99293 3.61781 3.80539 3.80534C3.61785 3.99288 3.5125 4.24723 3.5125 4.51245C3.5125 4.77767 3.61785 5.03202 3.80539 5.21956L7.34289 8.75706C7.53043 8.9446 7.78478 9.04995 8.05 9.04995C8.06725 9.04995 8.08451 9.0495 8.10174 9.04861C8.34873 9.03581 8.58247 8.93224 8.75736 8.75736C8.94489 8.56982 9.05 8.31517 9.05 8.04995C9.05 7.78473 8.94464 7.53038 8.7571 7.34284L5.2196 3.80534Z" fill="#9CA3AF"/>
<path d="M6 12H1C0.447715 12 0 12.4477 0 13C0 13.5523 0.447715 14 1 14H6C6.55228 14 7 13.5523 7 13C7 12.4477 6.55228 12 6 12Z" fill="#9CA3AF"/>
<path d="M7.34277 17.243L3.80539 20.7803C3.61785 20.9679 3.5125 21.2222 3.5125 21.4874C3.5125 21.5047 3.51294 21.522 3.51384 21.5392C3.52663 21.7862 3.63051 22.0197 3.80539 22.1946C3.99293 22.3821 4.24728 22.4874 4.5125 22.4874C4.77771 22.4874 5.03207 22.3821 5.2196 22.1946L8.75698 18.6572C8.94464 18.4695 9.05 18.2152 9.05 17.95C9.05 17.6847 8.9449 17.4302 8.75736 17.2426C8.56982 17.0551 8.31521 16.95 8.05 16.95C8.03274 16.95 8.01549 16.9504 7.99826 16.9513C7.75126 16.9641 7.51777 17.068 7.34277 17.243Z" fill="#9CA3AF"/>
<path d="M12 20V25C12 25.5523 12.4477 26 13 26C13.5523 26 14 25.5523 14 25V20C14 19.4477 13.5523 19 13 19C12.4477 19 12 19.4477 12 20Z" fill="#9CA3AF"/>
<path d="M20.7801 22.1942C20.9676 22.3818 21.2223 22.4874 21.4875 22.4874C21.5048 22.4874 21.522 22.487 21.5392 22.4861C21.7862 22.4733 22.0197 22.3694 22.1946 22.1946C22.3821 22.007 22.4875 21.7527 22.4875 21.4874C22.4875 21.2222 22.3821 20.9679 22.1946 20.7803L18.6571 17.2428C18.4696 17.0553 18.2152 16.95 17.95 16.95C17.6848 16.95 17.4302 17.0551 17.2426 17.2426C17.0551 17.4302 16.95 17.6847 16.95 17.95C16.95 18.2152 17.0554 18.4695 17.2429 18.6571L20.7801 22.1942Z" fill="#9CA3AF"/>
<path d="M20 14H25C25.5523 14 26 13.5523 26 13C26 12.4477 25.5523 12 25 12H20C19.4477 12 19 12.4477 19 13C19 13.5523 19.4477 14 20 14Z" fill="#9CA3AF"/>
<path d="M18.6572 8.75694L22.1946 5.21956C22.3821 5.03202 22.4875 4.77767 22.4875 4.51245C22.4875 4.24723 22.3821 3.99288 22.1946 3.80534C22.0071 3.61781 21.7527 3.51245 21.4875 3.51245C21.2223 3.51245 20.9679 3.61781 20.7804 3.80534L17.243 7.34273C17.0554 7.53038 16.95 7.78474 16.95 8.04995C16.95 8.31517 17.0551 8.56982 17.2426 8.75736C17.4302 8.9449 17.6848 9.04995 17.95 9.04995C18.2152 9.04995 18.4696 8.9446 18.6572 8.75694Z" fill="#9CA3AF"/>
</svg>
