<svg width="38" height="32" viewBox="0 0 38 32" fill="none" xmlns="http://www.w3.org/2000/svg">
<path d="M13.75 15.5C15.683 15.5 17.25 13.933 17.25 12C17.25 10.067 15.683 8.5 13.75 8.5C11.817 8.5 10.25 10.067 10.25 12C10.25 13.933 11.817 15.5 13.75 15.5Z" fill="#9CA3AF"/>
<path d="M20.75 11.125C20.75 10.6418 21.1418 10.25 21.625 10.25H28.625C29.1082 10.25 29.5 10.6418 29.5 11.125C29.5 11.6082 29.1082 12 28.625 12H21.625C21.1418 12 20.75 11.6082 20.75 11.125Z" fill="#9CA3AF"/>
<path d="M20.75 15.5C20.75 15.0168 21.1418 14.625 21.625 14.625H28.625C29.1082 14.625 29.5 15.0168 29.5 15.5C29.5 15.9832 29.1082 16.375 28.625 16.375H21.625C21.1418 16.375 20.75 15.9832 20.75 15.5Z" fill="#9CA3AF"/>
<path d="M22.5 19.875C22.5 19.3918 22.8918 19 23.375 19H28.625C29.1082 19 29.5 19.3918 29.5 19.875C29.5 20.3582 29.1082 20.75 28.625 20.75H23.375C22.8918 20.75 22.5 20.3582 22.5 19.875Z" fill="#9CA3AF"/>
<path d="M8.5 5C6.567 5 5 6.567 5 8.5V22.5C5 24.433 6.567 26 8.5 26H29.5C31.433 26 33 24.433 33 22.5V8.5C33 6.567 31.433 5 29.5 5H8.5ZM6.75 8.5C6.75 7.5335 7.5335 6.75 8.5 6.75H29.5C30.4665 6.75 31.25 7.5335 31.25 8.5V22.5C31.25 23.4665 30.4665 24.25 29.5 24.25H20.6791C20.7258 23.9642 20.75 23.6721 20.75 23.375C20.75 19.9923 17.616 17.25 13.75 17.25C10.099 17.25 7.10076 19.6958 6.77865 22.8171C6.75983 22.7142 6.75 22.6083 6.75 22.5V8.5Z" fill="#9CA3AF"/>
</svg>
