<svg width="32" height="32" viewBox="0 0 32 32" fill="none" xmlns="http://www.w3.org/2000/svg">
<path d="M31.9999 9C31.9999 11.8567 30.669 14.4026 28.5933 16.0513L25.9999 10L31.918 7.78071C31.972 8.17944 31.9999 8.58646 31.9999 9Z" fill="#9CA3AF"/>
<path d="M22.9999 18C24.3057 18 25.5465 17.7219 26.6664 17.2218L23.9999 11L21.9999 6L29.653 2.93879C28.0069 1.13311 25.6358 0 22.9999 0C18.0294 0 13.9999 4.02944 13.9999 9C13.9999 10.121 14.2049 11.194 14.5793 12.1839L2.34564 22.3786C0.0119929 24.3233 -0.148073 27.852 1.99992 30C4.14792 32.148 7.67665 31.9879 9.62136 29.6543L19.8161 17.4206C20.8059 17.7951 21.879 18 22.9999 18ZM20.4159 9.27735L19.2243 11.0648L20.8418 10.5257C21.0444 10.4581 21.2676 10.5268 21.3973 10.6965C21.5269 10.8663 21.5344 11.0996 21.4159 11.2774L20.2243 13.0648L21.8418 12.5257L22.158 13.4743L19.158 14.4743C18.9554 14.5419 18.7322 14.4732 18.6026 14.3035C18.4729 14.1337 18.4654 13.9004 18.5839 13.7227L19.7756 11.9352L18.158 12.4743C17.9554 12.5419 17.7322 12.4732 17.6026 12.3035C17.4729 12.1337 17.4654 11.9004 17.5839 11.7226L18.7756 9.93517L17.158 10.4743L16.8418 9.52566L19.8418 8.52566C20.0444 8.45811 20.2676 8.52675 20.3973 8.6965C20.5269 8.86625 20.5344 9.09962 20.4159 9.27735ZM5.99992 28C4.89535 28 3.99992 27.1046 3.99992 26C3.99992 24.8954 4.89535 24 5.99992 24C7.10449 24 7.99992 24.8954 7.99992 26C7.99992 27.1046 7.10449 28 5.99992 28Z" fill="#9CA3AF"/>
</svg>
